<svg width="70" height="53" viewBox="0 0 70 53" fill="none" xmlns="http://www.w3.org/2000/svg">
<g clip-path="url(#clip0_91_993)">
<path d="M60.2382 30.16C57.791 30.1738 55.6718 30.7615 53.8945 31.6367C53.2382 30.3378 52.582 29.2029 52.4727 28.3554C52.3497 27.371 52.1993 26.7694 52.3497 25.5937C52.5 24.4178 53.1835 22.7498 53.1835 22.6131C53.1697 22.4901 53.033 21.8885 51.625 21.8748C50.2169 21.8611 48.9999 22.1483 48.8632 22.5174C48.7265 22.8865 48.4531 23.7342 48.2753 24.6092C48.0292 25.8944 45.4589 30.4471 43.996 32.8397C43.5175 31.91 43.1074 31.0897 43.0252 30.4333C42.9023 29.449 42.7518 28.8473 42.9023 27.6717C43.0527 26.4958 43.7363 24.8279 43.7363 24.6912C43.7226 24.5682 43.5859 23.9666 42.1778 23.9529C40.7695 23.9393 39.5528 24.2264 39.4161 24.5955C39.2794 24.9647 39.129 25.8397 38.8282 26.6873C38.541 27.535 35.123 35.1365 34.2343 37.119C33.7831 38.1307 33.3868 38.9373 33.0996 39.4842C32.8124 40.0311 33.0859 39.5252 33.0585 39.5799C32.8124 40.0447 32.6757 40.3045 32.6757 40.3045V40.3183C32.4843 40.6601 32.2792 40.9881 32.1834 40.9881C32.115 40.9881 31.9783 40.0721 32.2107 38.8144C32.7166 36.1756 33.9471 32.0605 33.9335 31.9101C33.9335 31.8418 34.1658 31.117 33.1404 30.748C32.1424 30.3789 31.7871 30.9941 31.7049 30.9941C31.6229 30.9941 31.5545 31.2128 31.5545 31.2128C31.5545 31.2128 32.6619 26.5782 29.4354 26.5782C27.4119 26.5782 24.6229 28.7794 23.242 30.7892C22.367 31.2677 20.5076 32.2793 18.5389 33.3595C17.7869 33.7696 17.0076 34.2071 16.2693 34.6036L16.1191 34.4393C12.2089 30.2693 4.97651 27.3162 5.27729 21.7108C5.38666 19.6736 6.0976 14.3006 19.1681 7.79279C29.8731 2.46076 38.4454 3.92365 39.9355 7.17755C42.0546 11.826 35.3554 20.4666 24.2266 21.7108C19.9884 22.1893 17.7597 20.5486 17.1993 19.9334C16.6114 19.2908 16.5294 19.2635 16.3106 19.3865C15.9552 19.5779 16.1739 20.1522 16.3106 20.494C16.6388 21.3553 18.0059 22.8865 20.3302 23.6522C22.3671 24.3221 27.3438 24.6912 33.3595 22.367C40.0997 19.7557 45.3634 12.5096 43.8184 6.45294C42.2462 0.286929 32.0196 -1.73651 22.3536 1.69513C16.5976 3.74591 10.3632 6.94513 5.87885 11.1424C0.54682 16.119 -0.300837 20.4666 0.0546319 22.2713C1.29891 28.7108 10.1718 32.908 13.7265 36.0115C13.5488 36.1071 13.3847 36.2028 13.2343 36.285C11.457 37.1598 4.6894 40.701 2.99409 44.4469C1.08002 48.6852 3.29487 51.7342 4.77143 52.1444C9.33784 53.4158 14.0136 51.1326 16.5429 47.3729C19.0584 43.6131 18.7578 38.7322 17.5956 36.5037L17.5545 36.4217L18.949 35.6014C19.8515 35.0682 20.7402 34.576 21.5193 34.152C21.082 35.3415 20.7674 36.7497 20.6035 38.8005C20.4121 41.2069 21.3964 44.3239 22.6953 45.5544C23.2695 46.0874 23.9531 46.1012 24.3769 46.1012C25.8808 46.1012 26.5644 44.857 27.3164 43.3669C28.246 41.5485 29.0664 39.443 29.0664 39.443C29.0664 39.443 28.041 45.1442 30.8437 45.1442C31.8691 45.1442 32.8945 43.818 33.3593 43.1344V43.1481C33.3593 43.1481 33.3867 43.1071 33.4414 43.0114C33.4987 42.9266 33.5534 42.84 33.6054 42.7518V42.7244C34.0156 42.0135 34.9316 40.3865 36.2988 37.6932C38.0623 34.2205 39.7578 29.8729 39.7578 29.8729C39.7578 29.8729 39.9218 30.9393 40.4277 32.6893C40.7283 33.7285 41.3846 34.8631 41.8904 35.9705C41.4803 36.5447 41.2342 36.873 41.2342 36.873L41.2479 36.8867C40.9199 37.3242 40.5506 37.7892 40.1679 38.2539C38.7734 39.9218 37.1054 41.8224 36.8867 42.3692C36.6269 43.0117 36.6816 43.4902 37.1874 43.8731C37.5566 44.1466 38.2128 44.2011 38.9101 44.1466C40.1679 44.0644 41.0429 43.7501 41.4804 43.5586C42.164 43.3125 42.9433 42.9433 43.6953 42.3964C45.0625 41.3849 45.8964 39.9493 45.8144 38.0352C45.7734 36.9825 45.4316 35.9435 45.0078 34.9591C45.1308 34.7813 45.254 34.6035 45.3769 34.4122C47.5371 31.2539 49.205 27.7813 49.205 27.7813C49.205 27.7813 49.3691 28.8477 49.8749 30.5977C50.1346 31.4864 50.6542 32.4573 51.1191 33.4143C49.0956 35.0686 47.8242 36.9827 47.3867 38.2405C46.58 40.5647 47.2089 41.6174 48.3984 41.8635C48.9315 41.9729 49.6972 41.7268 50.2713 41.4807C50.9822 41.2483 51.8436 40.8517 52.6367 40.2639C54.0039 39.2522 55.3164 37.844 55.248 35.9436C55.207 35.0686 54.9746 34.2073 54.6601 33.3869C56.3828 32.676 58.6111 32.2659 61.4414 32.6077C67.5253 33.3186 68.7285 37.1194 68.4962 38.7053C68.2638 40.2914 66.9923 41.1662 66.5683 41.4397C66.1445 41.6994 66.0078 41.7953 66.0488 41.9866C66.1035 42.2738 66.2949 42.26 66.664 42.2054C67.1699 42.1233 69.8632 40.9066 69.9726 37.981C70.1367 34.2207 66.5683 30.1191 60.2382 30.16ZM13.3164 45.9783C11.3066 48.1795 8.47651 49.0135 7.27338 48.3026C5.97455 47.5506 6.48028 44.3104 8.95502 41.9725C10.4589 40.5506 12.414 39.2381 13.6992 38.4315C13.9863 38.2537 14.4238 37.9941 14.9433 37.6795C15.0253 37.625 15.08 37.5975 15.08 37.5975C15.1757 37.5428 15.2851 37.4744 15.3945 37.4061C16.3105 40.742 15.4355 43.6678 13.3164 45.9783ZM28.0136 35.9842C27.3164 37.6932 25.8398 42.0819 24.9511 41.8358C24.1854 41.6307 23.7206 38.3084 24.8006 35.0272C25.3475 33.3727 26.5096 31.4041 27.1932 30.6384C28.3007 29.4079 29.5037 28.9977 29.8046 29.5036C30.1601 30.16 28.4511 34.9178 28.0136 35.9842ZM40.1406 41.7811C39.8398 41.9316 39.5664 42.0408 39.4433 41.9589C39.3476 41.9043 39.5662 41.6992 39.5662 41.6992C39.5662 41.6992 41.0838 40.0722 41.6854 39.3203C42.0272 38.8829 42.4373 38.377 42.8748 37.8027V37.9668C42.875 39.9354 40.9882 41.2479 40.1406 41.7811ZM49.492 39.6483C49.2733 39.4842 49.3007 38.9783 50.0389 37.3924C50.3261 36.7635 50.9822 35.7108 52.117 34.7127C52.2537 35.1229 52.3359 35.5192 52.3221 35.8885C52.3085 38.3494 50.5585 39.2654 49.492 39.6483Z" fill="#CF649A"/>
</g>
<defs>
<clipPath id="clip0_91_993">
<rect width="70" height="52.5" fill="white"/>
</clipPath>
</defs>
</svg>
