<svg width="71" height="70" viewBox="0 0 71 70" fill="none" xmlns="http://www.w3.org/2000/svg">
<g clip-path="url(#clip0_91_999)">
<path d="M35.3455 0.165039C15.8272 0.165039 0 15.9814 0 35.4925C0 51.1014 10.1276 64.3436 24.1715 69.0149C25.9379 69.3419 26.5866 68.2486 26.5866 67.3154C26.5866 66.4731 26.5536 63.69 26.5386 60.7381C16.7052 62.8751 14.6303 56.5699 14.6303 56.5699C13.0224 52.4865 10.7058 51.4009 10.7058 51.4009C7.49906 49.2082 10.9475 49.2531 10.9475 49.2531C14.4969 49.5024 16.3659 52.8937 16.3659 52.8937C19.5183 58.2946 24.6345 56.7331 26.6514 55.8307C26.9686 53.5471 27.8847 51.9888 28.8954 51.1067C21.0449 50.2131 12.7918 47.1839 12.7918 33.6475C12.7918 29.7908 14.1726 26.6391 16.4338 24.1652C16.0668 23.2752 14.857 19.6822 16.7761 14.8161C16.7761 14.8161 19.7442 13.8666 26.4987 18.4374C29.3179 17.6544 32.3417 17.262 35.3455 17.2487C38.3494 17.262 41.3754 17.6544 44.2001 18.4374C50.9466 13.8666 53.9105 14.8161 53.9105 14.8161C55.8343 19.6822 54.624 23.2752 54.257 24.1652C56.5232 26.6391 57.8946 29.7905 57.8946 33.6475C57.8946 47.2161 49.626 50.204 41.7554 51.0784C43.0231 52.1748 44.1527 54.3248 44.1527 57.6205C44.1527 62.3473 44.1117 66.1517 44.1117 67.3154C44.1117 68.2555 44.7479 69.3571 46.5398 69.0102C60.576 64.3336 70.6908 51.0961 70.6908 35.4925C70.6908 15.9814 54.8658 0.165039 35.3455 0.165039Z" fill="white"/>
<path d="M13.2382 50.4897C13.1606 50.6651 12.8839 50.7177 12.6325 50.5975C12.3761 50.4822 12.2319 50.2428 12.3151 50.0666C12.3913 49.886 12.668 49.8355 12.9238 49.9569C13.1808 50.0719 13.3272 50.3135 13.2382 50.4897ZM14.9768 52.0402C14.8083 52.1964 14.4787 52.1238 14.255 51.877C14.0238 51.6307 13.9806 51.3015 14.1516 51.1427C14.3254 50.9867 14.645 51.0596 14.8768 51.3062C15.108 51.5553 15.1529 51.8825 14.9766 52.0404M16.1697 54.024C15.9529 54.1744 15.5986 54.0334 15.3799 53.7192C15.1634 53.4053 15.1634 53.0285 15.3846 52.8775C15.6042 52.7265 15.9529 52.8622 16.1747 53.1739C16.3909 53.4934 16.3909 53.8702 16.1694 54.0242M18.1866 56.3217C17.9929 56.535 17.5804 56.4779 17.2782 56.1865C16.9694 55.9016 16.8832 55.4974 17.0775 55.2838C17.2735 55.0699 17.6885 55.13 17.9929 55.419C18.2997 55.7033 18.3932 56.1106 18.1866 56.3217ZM20.7935 57.0975C20.7084 57.374 20.3109 57.4998 19.9106 57.3823C19.5109 57.2612 19.2492 56.937 19.3299 56.6575C19.413 56.379 19.8122 56.248 20.2155 56.3738C20.6147 56.4943 20.8767 56.816 20.7935 57.0975ZM23.7608 57.4263C23.7707 57.7178 23.4312 57.9594 23.0109 57.9647C22.5882 57.9738 22.2464 57.738 22.2419 57.4516C22.2419 57.1573 22.5738 56.9179 22.9962 56.911C23.4165 56.9027 23.7608 57.1368 23.7608 57.4263ZM26.6753 57.3147C26.7258 57.599 26.4336 57.891 26.0164 57.9686C25.6061 58.0434 25.2264 57.868 25.174 57.5862C25.123 57.2947 25.4207 57.003 25.8301 56.9273C26.2482 56.8548 26.6221 57.0257 26.6753 57.3147Z" fill="#161614"/>
</g>
<defs>
<clipPath id="clip0_91_999">
<rect width="70.9655" height="69" fill="white" transform="translate(0 0.165039)"/>
</clipPath>
</defs>
</svg>
