<svg width="71" height="20" viewBox="0 0 71 20" fill="none" xmlns="http://www.w3.org/2000/svg">
<g clip-path="url(#clip0_91_1004)">
<path d="M17.8862 0.181152V15.0469L19.7955 15.0541V7.97836H24.4082V6.10557H19.7955V2.05394H25.8V0.181152H17.8862ZM29.2468 3.19802C29.9391 3.19802 30.4929 2.63691 30.4929 1.95192C30.4929 1.26693 29.9318 0.705824 29.2468 0.705824C28.5546 0.705824 28.0007 1.26693 28.0007 1.95192C28.0007 2.63691 28.5619 3.19802 29.2468 3.19802ZM28.2777 5.0708V15.0469H30.1869V5.0708H28.2777Z" fill="white"/>
<path fill-rule="evenodd" clip-rule="evenodd" d="M37.2769 4.7793C34.7337 4.7793 32.9629 6.92899 32.9629 9.47948C32.9629 12.03 34.7337 14.1797 37.2769 14.1797C38.4428 14.1797 39.3974 13.7279 40.097 12.9992V14.3181C40.097 15.9723 38.7999 17.3496 37.102 17.3496C36.4899 17.3496 35.885 17.1164 35.4041 16.7812L34.4422 18.4426C35.2073 18.9382 36.1182 19.2224 37.0947 19.2224C39.8055 19.2224 41.9989 17.0289 41.9989 14.3181V5.07078H40.097V5.95981C39.3974 5.2311 38.4428 4.7793 37.2769 4.7793ZM34.8794 9.47948C34.8794 7.89818 36.0891 6.65208 37.4882 6.65208C38.8873 6.65208 40.097 7.89818 40.097 9.47948C40.097 11.0608 38.8873 12.3069 37.4882 12.3069C36.0891 12.3069 34.8794 11.0608 34.8794 9.47948Z" fill="white"/>
<path d="M48.8998 6.65209C47.7703 6.65209 46.8521 7.61398 46.8521 8.74349V15.0468H44.9429V5.07078H46.8521V5.98167C47.4132 5.26025 48.2366 4.7793 49.3151 4.7793C50.656 4.7793 51.6835 5.44242 52.281 6.46262C52.9441 5.47886 54.0226 4.7793 55.327 4.7793C57.5059 4.7793 58.8613 6.53549 58.8685 8.70705V15.0468H56.9593V8.7362C56.9593 7.6067 56.0411 6.6448 54.9116 6.6448C53.7821 6.6448 52.864 7.6067 52.864 8.7362V15.0468H50.9547V8.7362C50.9475 7.6067 50.0293 6.65209 48.8998 6.65209Z" fill="white"/>
<path fill-rule="evenodd" clip-rule="evenodd" d="M69.0562 6.20028C68.2036 5.31854 67.0377 4.7793 65.6896 4.7793C62.8476 4.7793 60.8218 7.19133 60.8218 10.0625C60.8218 12.9336 62.8403 15.3456 65.6896 15.3456C67.0377 15.3456 68.2036 14.7991 69.0562 13.9246V15.0468H70.9654V5.07078H69.0562V6.20028ZM62.7383 10.0625C62.7383 8.16052 64.1957 6.65209 65.9009 6.65209C67.5988 6.65209 69.0635 8.15323 69.0635 10.0625C69.0635 11.9644 67.6061 13.4728 65.9009 13.4728C64.1957 13.4655 62.7383 11.9644 62.7383 10.0625Z" fill="white"/>
<path d="M7.38525 9.81469C7.38525 8.04392 8.82081 6.60107 10.5989 6.60107C12.3696 6.60107 13.8125 8.03664 13.8125 9.81469C13.8125 11.5855 12.3769 13.0283 10.5989 13.0283C8.8281 13.0283 7.38525 11.5855 7.38525 9.81469Z" fill="#1ABCFE"/>
<path d="M0.965332 16.2346C0.965332 14.4638 2.40089 13.021 4.17895 13.021H7.39256V16.2346C7.39256 18.0054 5.957 19.4482 4.17895 19.4482C2.40089 19.4482 0.965332 18.0127 0.965332 16.2346Z" fill="#0ACF83"/>
<path d="M7.38525 0.181115V6.60106H10.5989C12.3696 6.60106 13.8125 5.1655 13.8125 3.38744C13.8125 1.61668 12.3769 0.173828 10.5989 0.173828H7.38525V0.181115Z" fill="#FF7262"/>
<path d="M0.965332 3.39477C0.965332 5.16554 2.40089 6.60838 4.17895 6.60838H7.39256V0.181152H4.17895C2.40089 0.181152 0.965332 1.61671 0.965332 3.39477Z" fill="#F24E1E"/>
<path d="M0.965332 9.81469C0.965332 11.5855 2.40089 13.0283 4.17895 13.0283H7.39256V6.60107H4.17895C2.40089 6.60107 0.965332 8.04392 0.965332 9.81469Z" fill="#A259FF"/>
</g>
<defs>
<clipPath id="clip0_91_1004">
<rect width="70" height="19.292" fill="white" transform="translate(0.965332 0.165039)"/>
</clipPath>
</defs>
</svg>
