<svg width="72" height="64" viewBox="0 0 72 64" fill="none" xmlns="http://www.w3.org/2000/svg">
<path d="M71.1733 32.1721C71.1733 27.5211 65.3489 23.1134 56.4191 20.3801C58.4798 11.2785 57.5639 4.03735 53.5283 1.71903C52.5981 1.17522 51.5105 0.917631 50.3227 0.917631V4.1089C50.981 4.1089 51.5105 4.2377 51.9541 4.48098C53.9004 5.59721 54.7447 9.84747 54.0864 15.3141C53.929 16.6593 53.6714 18.0761 53.3566 19.5215C50.5517 18.8346 47.4892 18.3051 44.2693 17.9616C42.3374 15.3141 40.3339 12.9099 38.3161 10.8063C42.9814 6.47016 47.3604 4.09459 50.337 4.09459V0.90332C46.4016 0.90332 41.2498 3.70821 36.0407 8.57382C30.8316 3.73683 25.6798 0.960563 21.7444 0.960563V4.15184C24.7067 4.15184 29.1 6.51309 33.7653 10.8206C31.7618 12.9243 29.7583 15.3141 27.855 17.9616C24.6208 18.3051 21.5583 18.8346 18.7535 19.5358C18.4243 18.1047 18.181 16.7166 18.0093 15.3857C17.3367 9.91902 18.1667 5.66876 20.0987 4.53822C20.528 4.28063 21.0861 4.16615 21.7444 4.16615V0.974874C20.5423 0.974874 19.4547 1.23246 18.5102 1.77627C14.4889 4.09459 13.5873 11.3215 15.6624 20.3944C6.76114 23.1421 0.965332 27.5354 0.965332 32.1721C0.965332 36.823 6.78976 41.2307 15.7196 43.964C13.6589 53.0656 14.5748 60.3068 18.6104 62.6251C19.5405 63.1689 20.6282 63.4265 21.8302 63.4265C25.7657 63.4265 30.9175 60.6216 36.1266 55.756C41.3356 60.593 46.4875 63.3693 50.4229 63.3693C51.625 63.3693 52.7126 63.1117 53.6571 62.5679C57.6784 60.2495 58.58 53.0227 56.5049 43.9497C65.3775 41.2164 71.1733 36.8087 71.1733 32.1721ZM52.5409 22.6269C52.0114 24.4729 51.3531 26.3763 50.6089 28.2796C50.0222 27.1347 49.4068 25.9899 48.7342 24.845C48.076 23.7002 47.3747 22.5839 46.6735 21.4963C48.7056 21.7969 50.6662 22.1689 52.5409 22.6269ZM45.9866 37.8677C44.8704 39.7996 43.7255 41.6314 42.5377 43.3344C40.4055 43.5204 38.2445 43.6206 36.0693 43.6206C33.9084 43.6206 31.7475 43.5204 29.6295 43.3487C28.4418 41.6457 27.2826 39.8283 26.1664 37.9106C25.0788 36.0359 24.0913 34.1326 23.1898 32.215C24.077 30.2974 25.0788 28.3797 26.1521 26.5051C27.2683 24.5731 28.4131 22.7414 29.6009 21.0384C31.7332 20.8524 33.8941 20.7522 36.0693 20.7522C38.2302 20.7522 40.3911 20.8524 42.5091 21.0241C43.6969 22.727 44.8561 24.5445 45.9723 26.4621C47.0599 28.3368 48.0473 30.2401 48.9489 32.1578C48.0473 34.0754 47.0599 35.993 45.9866 37.8677ZM50.6089 36.0073C51.3817 37.9249 52.04 39.8426 52.5838 41.703C50.7091 42.1609 48.7342 42.5473 46.6878 42.8478C47.389 41.7459 48.0903 40.6153 48.7486 39.4562C49.4069 38.3113 50.0222 37.1522 50.6089 36.0073ZM36.098 51.2768C34.7671 49.903 33.4362 48.3717 32.1196 46.6974C33.4076 46.7546 34.7241 46.7975 36.055 46.7975C37.4002 46.7975 38.7311 46.7689 40.0334 46.6974C38.7454 48.3717 37.4145 49.903 36.098 51.2768ZM25.4508 42.8478C23.4187 42.5473 21.4582 42.1752 19.5835 41.7173C20.113 39.8712 20.7713 37.9679 21.5154 36.0646C22.1021 37.2094 22.7175 38.3543 23.3901 39.4991C24.0627 40.644 24.7496 41.7602 25.4508 42.8478ZM36.0264 13.0674C37.3573 14.4412 38.6882 15.9724 40.0048 17.6468C38.7168 17.5895 37.4002 17.5466 36.0693 17.5466C34.7241 17.5466 33.3932 17.5752 32.091 17.6468C33.3789 15.9724 34.7098 14.4412 36.0264 13.0674ZM25.4365 21.4963C24.7353 22.5982 24.0341 23.7288 23.3758 24.888C22.7175 26.0328 22.1021 27.1777 21.5154 28.3225C20.7426 26.4049 20.0843 24.4873 19.5405 22.6269C21.4152 22.1832 23.3901 21.7969 25.4365 21.4963ZM12.4854 39.4133C7.41943 37.2523 4.14229 34.4188 4.14229 32.1721C4.14229 29.9253 7.41943 27.0775 12.4854 24.9309C13.7161 24.4014 15.0613 23.9291 16.4494 23.4855C17.2652 26.2904 18.3384 29.2098 19.6693 32.2007C18.3528 35.1773 17.2938 38.0824 16.4924 40.8729C15.0756 40.4293 13.7304 39.9427 12.4854 39.4133ZM20.1845 59.8632C18.2383 58.7469 17.3939 54.4967 18.0522 49.03C18.2097 47.6848 18.4672 46.268 18.7821 44.8227C21.587 45.5096 24.6494 46.0391 27.8693 46.3825C29.8013 49.03 31.8048 51.4342 33.8226 53.5379C29.1573 57.874 24.7782 60.2495 21.8016 60.2495C21.1576 60.2352 20.6138 60.1064 20.1845 59.8632ZM54.1294 48.9584C54.802 54.4251 53.9719 58.6754 52.04 59.8059C51.6107 60.0635 51.0526 60.178 50.3943 60.178C47.432 60.178 43.0386 57.8167 38.3733 53.5092C40.3768 51.4056 42.3803 49.0157 44.2836 46.3682C47.5178 46.0248 50.5803 45.4953 53.3852 44.7941C53.7143 46.2394 53.9719 47.6276 54.1294 48.9584ZM59.639 39.4133C58.4082 39.9427 57.063 40.415 55.6749 40.8586C54.8592 38.0537 53.7859 35.1344 52.455 32.1434C53.7716 29.1668 54.8306 26.2618 55.632 23.4712C57.0487 23.9148 58.3939 24.4014 59.6533 24.9309C64.7192 27.0918 67.9964 29.9253 67.9964 32.1721C67.9821 34.4188 64.7049 37.2667 59.639 39.4133Z" fill="#61DAFB"/>
<path d="M36.0551 38.7118C39.667 38.7118 42.5951 35.7837 42.5951 32.1718C42.5951 28.5599 39.667 25.6318 36.0551 25.6318C32.4432 25.6318 29.5151 28.5599 29.5151 32.1718C29.5151 35.7837 32.4432 38.7118 36.0551 38.7118Z" fill="#61DAFB"/>
</svg>
