<svg width="70" height="70" viewBox="0 0 70 70" fill="none" xmlns="http://www.w3.org/2000/svg">
<g clip-path="url(#clip0_91_989)">
<path d="M0 0H70V70H0V0Z" fill="#F0DB4F"/>
<path d="M64.2711 53.3052C63.7587 50.1113 61.676 47.4297 55.5077 44.9278C53.3652 43.943 50.9764 43.2378 50.2644 41.6141C50.0116 40.6693 49.9783 40.1369 50.138 39.5647C50.5971 37.7082 52.8129 37.1293 54.5695 37.6617C55.7007 38.0409 56.772 38.9127 57.4174 40.3033C60.4384 38.3471 60.4317 38.3603 62.541 37.0163C61.7692 35.8186 61.3566 35.2662 60.8509 34.7539C59.0344 32.7245 56.5591 31.6798 52.6 31.7596C51.9146 31.8461 51.2226 31.9392 50.5372 32.0258C48.561 32.5248 46.6779 33.5629 45.5733 34.9535C42.2597 38.7131 43.2045 45.2938 47.2368 48.002C51.2093 50.983 57.0448 51.6617 57.7901 54.4497C58.5154 57.8632 55.2816 58.9677 52.0676 58.5752C49.6988 58.0828 48.3814 56.8785 46.9574 54.6893C44.3358 56.2064 44.3358 56.2064 41.6409 57.7568C42.2797 59.1541 42.9517 59.7862 44.023 60.9973C49.0934 66.1408 61.7825 65.888 64.0582 58.1028C64.1513 57.8366 64.7635 56.0533 64.2711 53.3052ZM38.0543 32.1721H31.5068C31.5068 37.828 31.4803 43.444 31.4803 49.0999C31.4803 52.6997 31.6666 56.0001 31.081 57.0115C30.1228 59.0009 27.6409 58.7548 26.5097 58.3688C25.3586 57.8032 24.773 56.9981 24.0943 55.8603C23.908 55.5343 23.7683 55.2814 23.7216 55.2615C21.9451 56.3461 20.1751 57.4373 18.3984 58.5219C19.2835 60.3385 20.5876 61.9155 22.2578 62.9401C24.753 64.4373 28.1066 64.8964 31.6133 64.0912C33.8957 63.4258 35.8652 62.0485 36.8965 59.9525C38.387 57.2044 38.0676 53.8774 38.0543 50.1978C38.0876 44.1959 38.0543 38.194 38.0543 32.1721Z" fill="#323330"/>
</g>
<defs>
<clipPath id="clip0_91_989">
<rect width="70" height="70" fill="white"/>
</clipPath>
</defs>
</svg>
