<svg width="70" height="71" viewBox="0 0 70 71" fill="none" xmlns="http://www.w3.org/2000/svg">
<g clip-path="url(#clip0_91_996)">
<path d="M68.6798 32.0461L38.1172 1.48513C36.3582 -0.27499 33.5035 -0.27499 31.7423 1.48513L25.3958 7.83161L33.4466 15.8824C35.3175 15.2502 37.4628 15.6743 38.9542 17.1657C40.4526 18.6666 40.8737 20.8303 40.2262 22.7072L47.985 30.4662C49.8621 29.8195 52.028 30.2379 53.5273 31.7396C55.6227 33.8341 55.6227 37.2289 53.5273 39.3248C51.4314 41.4209 48.0367 41.4209 45.9397 39.3248C44.3636 37.747 43.9742 35.4324 44.7721 33.4907L37.5364 26.255L37.5356 45.2964C38.0601 45.5557 38.5392 45.8983 38.9542 46.3108C41.0495 48.4054 41.0495 51.8004 38.9542 53.8979C36.8583 55.993 33.4619 55.993 31.369 53.8979C29.2737 51.8004 29.2737 48.4056 31.369 46.3111C31.8712 45.8087 32.4679 45.4108 33.1248 45.1405V25.9217C32.4669 25.6532 31.8699 25.2551 31.369 24.7511C29.7814 23.1657 29.3997 20.8363 30.2132 18.887L22.277 10.9499L1.3207 31.9048C-0.440234 33.6665 -0.440234 36.5215 1.3207 38.2819L31.8839 68.8434C33.6435 70.6038 36.4976 70.6038 38.2594 68.8434L68.6796 38.4238C70.44 36.6629 70.4402 33.8063 68.6798 32.0461Z" fill="#DE4C36"/>
</g>
<defs>
<clipPath id="clip0_91_996">
<rect width="70" height="70" fill="white" transform="translate(0 0.165039)"/>
</clipPath>
</defs>
</svg>
