<svg width="24" height="24" viewBox="0 0 24 24" fill="none" xmlns="http://www.w3.org/2000/svg">
<g clip-path="url(#clip0_207_924)">
<path d="M23.7072 0.292786C23.5196 0.105315 23.2653 0 23.0002 0C22.735 0 22.4807 0.105315 22.2932 0.292786L12.0002 10.5858L1.70715 0.292786C1.51963 0.105315 1.26532 0 1.00015 0C0.734988 0 0.48068 0.105315 0.293153 0.292786C0.105682 0.480314 0.000366211 0.734622 0.000366211 0.999786C0.000366211 1.26495 0.105682 1.51926 0.293153 1.70679L10.5862 11.9998L0.293153 22.2928C0.105682 22.4803 0.000366211 22.7346 0.000366211 22.9998C0.000366211 23.2649 0.105682 23.5193 0.293153 23.7068C0.48068 23.8943 0.734988 23.9996 1.00015 23.9996C1.26532 23.9996 1.51963 23.8943 1.70715 23.7068L12.0002 13.4138L22.2932 23.7068C22.4807 23.8943 22.735 23.9996 23.0002 23.9996C23.2653 23.9996 23.5196 23.8943 23.7072 23.7068C23.8946 23.5193 23.9999 23.2649 23.9999 22.9998C23.9999 22.7346 23.8946 22.4803 23.7072 22.2928L13.4142 11.9998L23.7072 1.70679C23.8946 1.51926 23.9999 1.26495 23.9999 0.999786C23.9999 0.734622 23.8946 0.480314 23.7072 0.292786Z" fill="#FEFEFE"/>
</g>
<defs>
<clipPath id="clip0_207_924">
<rect width="24" height="24" fill="white"/>
</clipPath>
</defs>
</svg>
