<svg width="30" height="30" viewBox="0 0 30 30" fill="none" xmlns="http://www.w3.org/2000/svg">
<path d="M11.1036 1C10.357 3.4701 10.2946 6.09645 10.9229 8.59923C11.5511 11.102 12.8466 13.3875 14.6713 15.2121C16.4959 17.0368 18.7814 18.3323 21.2842 18.9605C23.7869 19.5888 26.4133 19.5264 28.8834 18.7798C28.1673 21.1344 26.8536 23.2633 25.0703 24.9593C23.287 26.6553 21.0949 27.8605 18.7075 28.4576C16.32 29.0547 13.8186 29.0233 11.4469 28.3665C9.07512 27.7097 6.91392 26.4499 5.17373 24.7097C3.43354 22.9695 2.17369 20.8083 1.51688 18.4365C0.860071 16.0648 0.828692 13.5634 1.4258 11.1759C2.02291 8.78848 3.22815 6.59635 4.92413 4.81306C6.62012 3.02977 8.74904 1.7161 11.1036 1Z" fill="white" stroke="white" stroke-width="2" stroke-linecap="round" stroke-linejoin="round"/>
</svg>
