<svg width="34" height="34" viewBox="0 0 34 34" fill="none" xmlns="http://www.w3.org/2000/svg">
<g clip-path="url(#clip0_173_48)">
<path d="M17 34C26.3888 34 34 26.3888 34 17C34 7.61116 26.3888 0 17 0C7.61116 0 0 7.61116 0 17C0 26.3888 7.61116 34 17 34Z" fill="#F0F0F0"/>
<path d="M16.2609 17H34C34 15.4656 33.7955 13.9792 33.4144 12.5652H16.2609V17Z" fill="#D80027"/>
<path d="M16.2609 8.13046H31.5048C30.4642 6.43232 29.1336 4.93134 27.5822 3.69565H16.2609V8.13046Z" fill="#D80027"/>
<path d="M17 34C21.0009 34 24.6783 32.6172 27.5822 30.3044H6.41776C9.3217 32.6172 12.9991 34 17 34Z" fill="#D80027"/>
<path d="M2.49514 25.8696H31.5048C32.3403 24.5063 32.9882 23.0162 33.4144 21.4348H0.585632C1.01176 23.0162 1.65969 24.5063 2.49514 25.8696Z" fill="#D80027"/>
<path d="M7.87472 2.65479H9.42391L7.98289 3.70168L8.53334 5.39564L7.09239 4.34875L5.65144 5.39564L6.12691 3.93225C4.85815 4.9891 3.74611 6.22731 2.8297 7.60697H3.32609L2.40882 8.27336C2.26591 8.51175 2.12885 8.75394 1.9975 8.99971L2.43552 10.3478L1.61832 9.75408C1.41518 10.1845 1.22938 10.6245 1.06237 11.0738L1.54494 12.5591H3.32609L1.88507 13.606L2.43552 15.3L0.994566 14.2531L0.131418 14.8802C0.0450234 15.5747 0 16.2821 0 17H17C17 7.61122 17 6.50436 17 0C13.6417 0 10.5111 0.97418 7.87472 2.65479ZM8.53334 15.3L7.09239 14.2531L5.65144 15.3L6.20188 13.606L4.76086 12.5591H6.54201L7.09239 10.8652L7.64276 12.5591H9.42391L7.98289 13.606L8.53334 15.3ZM7.98289 8.65386L8.53334 10.3478L7.09239 9.30093L5.65144 10.3478L6.20188 8.65386L4.76086 7.60697H6.54201L7.09239 5.91301L7.64276 7.60697H9.42391L7.98289 8.65386ZM14.6312 15.3L13.1902 14.2531L11.7493 15.3L12.2997 13.606L10.8587 12.5591H12.6398L13.1902 10.8652L13.7406 12.5591H15.5217L14.0807 13.606L14.6312 15.3ZM14.0807 8.65386L14.6312 10.3478L13.1902 9.30093L11.7493 10.3478L12.2997 8.65386L10.8587 7.60697H12.6398L13.1902 5.91301L13.7406 7.60697H15.5217L14.0807 8.65386ZM14.0807 3.70168L14.6312 5.39564L13.1902 4.34875L11.7493 5.39564L12.2997 3.70168L10.8587 2.65479H12.6398L13.1902 0.960832L13.7406 2.65479H15.5217L14.0807 3.70168Z" fill="#0052B4"/>
</g>
<defs>
<clipPath id="clip0_173_48">
<rect width="34" height="34" fill="white"/>
</clipPath>
</defs>
</svg>
