<svg width="34" height="34" viewBox="0 0 34 34" fill="none" xmlns="http://www.w3.org/2000/svg">
<g clip-path="url(#clip0_173_57)">
<path d="M17 34C26.3888 34 34 26.3888 34 17C34 7.61116 26.3888 0 17 0C7.61116 0 0 7.61116 0 17C0 26.3888 7.61116 34 17 34Z" fill="#6DA544"/>
<path d="M17 6.65218L31.0435 17L17 27.3478L2.95654 17L17 6.65218Z" fill="#FFDA44"/>
<path d="M17 22.913C20.2657 22.913 22.913 20.2657 22.913 17C22.913 13.7343 20.2657 11.087 17 11.087C13.7343 11.087 11.087 13.7343 11.087 17C11.087 20.2657 13.7343 22.913 17 22.913Z" fill="#F0F0F0"/>
<path d="M14.0435 16.6304C13.0152 16.6304 12.0229 16.7868 11.0888 17.077C11.1302 20.307 13.7602 22.9131 17 22.9131C19.0033 22.9131 20.7727 21.9159 21.8423 20.3918C20.0123 18.1009 17.1966 16.6304 14.0435 16.6304Z" fill="#0052B4"/>
<path d="M22.8034 18.1329C22.8746 17.7661 22.9131 17.3876 22.9131 17C22.9131 13.7343 20.2657 11.087 17.0001 11.087C14.5634 11.087 12.4716 12.5613 11.5663 14.6662C12.3665 14.5004 13.195 14.4131 14.0436 14.4131C17.4779 14.413 20.5848 15.8406 22.8034 18.1329Z" fill="#0052B4"/>
</g>
<defs>
<clipPath id="clip0_173_57">
<rect width="34" height="34" fill="white"/>
</clipPath>
</defs>
</svg>
