<svg width="32" height="24" viewBox="0 0 32 24" fill="none" xmlns="http://www.w3.org/2000/svg">
<g clip-path="url(#clip0_207_324)">
<path d="M7.27275 23.8822V11.5825L3.43837 8.09279L0 6.15625V21.7116C0 22.9126 0.978125 23.8822 2.18187 23.8822H7.27275Z" fill="#4285F4"/>
<path d="M24.7271 23.8821H29.8179C31.0253 23.8821 31.9998 22.9089 31.9998 21.7115V6.15625L28.1053 8.37432L24.7271 11.5824V23.8821Z" fill="#34A853"/>
<path d="M7.27273 11.5823L6.75098 6.77643L7.27273 2.17676L16 8.68834L24.7272 2.17676L25.3109 6.52809L24.7272 11.5823L16 18.0939L7.27273 11.5823Z" fill="#EA4335"/>
<path d="M24.7271 2.17662V11.5821L31.9998 6.1559V3.26185C31.9998 0.577703 28.9198 -0.952453 26.7636 0.657288L24.7271 2.17662Z" fill="#FBBC04"/>
<path d="M0 6.15596L3.34488 8.65171L7.27275 11.5822V2.17668L5.23625 0.657345C3.07625 -0.95252 0 0.577759 0 3.26178V6.15583V6.15596Z" fill="#C5221F"/>
</g>
<defs>
<clipPath id="clip0_207_324">
<rect width="32" height="24" fill="white"/>
</clipPath>
</defs>
</svg>
